<svg width="67" height="65" viewBox="0 0 67 65" fill="none" xmlns="http://www.w3.org/2000/svg">
<path d="M46.6518 6.14951C46.7242 6.07647 46.7949 6.005 46.8637 5.93511C53.4311 -0.731976 68.136 11.425 61.1702 18.2596M46.6518 6.14951C39.8146 13.0439 17.1745 33.8205 13.0901 40.7059M46.6518 6.14951C43.0919 9.86423 43.9949 14.8799 47.5857 18.2349C52.1449 22.4948 57.078 22.2421 61.127 18.3019M13.0901 40.7059C12.7839 41.222 12.549 41.7532 12.3794 42.2926M13.0901 40.7059L12.3794 42.2926M12.3794 42.2926C10.4859 48.314 16.7358 55.3506 23.0255 53.6271M12.3794 42.2926L4 61M23.0255 53.6271C23.7692 53.4232 24.5135 53.097 25.245 52.632M23.0255 53.6271L14.5628 57.4211M23.0255 53.6271L25.245 52.632M25.245 52.632C32.7164 47.8829 54.2044 25.0943 61.1702 18.2596M61.1702 18.2596C61.1702 18.2596 61.1556 18.2731 61.127 18.3019M61.1702 18.2596C61.1558 18.2738 61.1414 18.2879 61.127 18.3019M4 61C6.84336 60.1292 10.7868 58.7591 14.5628 57.4211M4 61L14.5628 57.4211M61.127 18.3019C60.9555 18.4744 60.2811 19.1969 59.223 20.8795C58.6606 21.7737 27.6511 53.0829 26.0531 53.4249C25.1092 53.6268 20.0103 55.4906 14.5628 57.4211" stroke="#476161" stroke-width="8" stroke-linecap="round" stroke-linejoin="round"/>
</svg>
